<svg xmlns="http://www.w3.org/2000/svg" xmlns:xlink="http://www.w3.org/1999/xlink" width="24" height="24" viewBox="0 0 24 24">
  <defs>
    <clipPath id="clip-path">
      <rect id="사각형_168" data-name="사각형 168" width="24" height="24" transform="translate(0 0.421)" fill="#fff"/>
    </clipPath>
  </defs>
  <g id="마스크_그룹_50" data-name="마스크 그룹 50" transform="translate(0 -0.421)" clip-path="url(#clip-path)">
    <path id="phone-fill" d="M24.039,18.94v3.937A1.113,1.113,0,0,1,23,23.987q-.73.052-1.192.052A17.812,17.812,0,0,1,4,6.227q0-.461.052-1.192A1.113,1.113,0,0,1,5.162,4H9.1a.557.557,0,0,1,.554.5q.039.383.072.615A15.476,15.476,0,0,0,11.068,9.57a.508.508,0,0,1-.163.631L8.5,11.917a14.525,14.525,0,0,0,7.62,7.62l1.713-2.4a.514.514,0,0,1,.639-.166,15.471,15.471,0,0,0,4.454,1.342q.23.033.611.071A.557.557,0,0,1,24.039,18.94Z" transform="translate(-1.525 -1.866)" fill="#fff"/>
  </g>
</svg>
