<svg xmlns="http://www.w3.org/2000/svg" xmlns:xlink="http://www.w3.org/1999/xlink" width="14" height="14" viewBox="0 0 14 14">
  <defs>
    <clipPath id="clip-path">
      <rect id="사각형_355627" data-name="사각형 355627" width="14" height="14" transform="translate(-0.571 0.008)" fill="#3d894e"/>
    </clipPath>
  </defs>
  <g id="마스크_그룹_7510" data-name="마스크 그룹 7510" transform="translate(0.571 -0.008)" clip-path="url(#clip-path)">
    <path id="phone-fill" d="M18,14.438v2.75a.778.778,0,0,1-.723.776q-.51.036-.833.036A12.444,12.444,0,0,1,4,5.556q0-.322.036-.833A.778.778,0,0,1,4.812,4h2.75a.389.389,0,0,1,.387.35q.027.267.05.43a10.812,10.812,0,0,0,.938,3.112.355.355,0,0,1-.114.441l-1.679,1.2a10.148,10.148,0,0,0,5.324,5.324l1.2-1.676a.359.359,0,0,1,.446-.116A10.809,10.809,0,0,0,17.223,14q.161.023.427.05A.389.389,0,0,1,18,14.438Z" transform="translate(-4.04 -4.333)" fill="#3d894e"/>
  </g>
</svg>
