<svg xmlns="http://www.w3.org/2000/svg" xmlns:xlink="http://www.w3.org/1999/xlink" width="30" height="30" viewBox="0 0 30 30">
  <defs>
    <clipPath id="clip-path">
      <rect id="사각형_355638" data-name="사각형 355638" width="30" height="30" fill="#fff"/>
    </clipPath>
  </defs>
  <g id="마스크_그룹_7511" data-name="마스크 그룹 7511" clip-path="url(#clip-path)">
    <g id="그룹_475375" data-name="그룹 475375" transform="translate(1.673 2.888)">
      <path id="빼기_16" data-name="빼기 16" d="M5.379,24.418a.253.253,0,0,1-.205-.087.679.679,0,0,1-.025-.542c.135-.537.814-3.087,1.156-4.345a12.277,12.277,0,0,1-4.574-3.749A8.932,8.932,0,0,1,0,10.508a9.474,9.474,0,0,1,3.891-7.43A15.158,15.158,0,0,1,13.285,0a15.165,15.165,0,0,1,9.4,3.078,9.474,9.474,0,0,1,3.891,7.43c0,5.792-5.963,10.508-13.293,10.508a16.62,16.62,0,0,1-2.465-.186c-1.386.952-4.866,3.316-5.116,3.481A.529.529,0,0,1,5.379,24.418ZM19.724,11.127v0l1.806,2.465a.366.366,0,0,0,.3.139.408.408,0,0,0,.053,0,.021.021,0,0,0,.012,0l.048-.007a1.116,1.116,0,0,0,.78-.655.382.382,0,0,0-.032-.323l0-.007a.025.025,0,0,0,0-.007l0,0a.025.025,0,0,1,0-.007L20.759,10.2l.006-.007c.009-.009.021-.021.038-.04s.038-.042.065-.068l.177-.191.072-.078L21.2,9.73a.481.481,0,0,1,.046-.052l.1-.111c.292-.311.9-.961,1.222-1.282a.1.1,0,0,0,.022-.024c.08-.125.022-.328-.154-.549a.025.025,0,0,1,0-.007l0-.007h0l0,0-.008-.009a1.1,1.1,0,0,0-.546-.382.018.018,0,0,0-.011,0s0,0-.008,0a.484.484,0,0,0-.055,0,.2.2,0,0,0-.152.057c-.065.064-.216.217-.414.415s-.439.438-.683.683c-.464.462-.938.938-1.133,1.133L19.4,9.6c-.024.021-.042.04-.055.054l-.008.007-.008,0h0l0,.007a.028.028,0,0,0-.007.007c0-.016.019-1.31,0-1.987V7.678a.033.033,0,0,1,0-.012V7.659a.033.033,0,0,1,0-.009V7.642h0l0-.009,0-.014c-.062-.229-.379-.33-.666-.33h-.06a.049.049,0,0,1-.019,0,.859.859,0,0,0-.547.2.318.318,0,0,0-.091.238c.007.323,0,2.422-.012,3.869v.476q0,.283,0,.516l0,.349v.391a36.941,36.941,0,0,1,0,.024v.007a.222.222,0,0,0,.006.026.114.114,0,0,0,.006.024.067.067,0,0,1,0,.014l.013.026,0,.007a.041.041,0,0,0,.006.009.033.033,0,0,0,.006.009l0,.007a.987.987,0,0,0,1.3,0l.011-.016a.041.041,0,0,0,.006-.009.025.025,0,0,0,0-.007.072.072,0,0,0,.006-.014l.006-.016,0-.009a.143.143,0,0,0,.006-.021c0-.009,0-.016,0-.024a.015.015,0,0,0,0-.007v-.009a.015.015,0,0,0,0-.007.033.033,0,0,1,0-.012V11.46l.408-.33ZM9.287,12.461h2.506v.007c-.007.007-.065.1.242.907v.007l.007,0,0,.009a.089.089,0,0,0,.009.016c0,.007,0,.012.006.012l.006.016c0,.012,0,.012.007.019s0,0,.006,0a.22.22,0,0,0,.019.033.519.519,0,0,0,.429.224h.108a.045.045,0,0,1,.026-.007h.019l.006-.007h.039l.013,0a.64.64,0,0,0,.12-.035l.039-.012h.013a.037.037,0,0,1,.019-.012l.013-.007a.315.315,0,0,0,.082-.04l.014-.009v0h.006a.016.016,0,0,1,.012,0l.006-.014h.013l.019-.019.013-.007.013-.012c.007-.007.009-.007.013-.007a.056.056,0,0,0,.012-.012l.007,0a.01.01,0,0,1,.006-.009l.014-.012.006-.007v0l.006,0,.012-.007.007-.007.007-.012h0l.007,0a.042.042,0,0,0,.012-.016h0l.007,0,.007-.007h0l.006-.014.018-.019c0-.007.007-.009.011-.016a.518.518,0,0,0,.1-.276v-.059c-.006-.007-.006-.007-.006-.012V13.01a.044.044,0,0,0-.008-.031v-.019l-.006-.012v-.014l-.006,0s0,0,0,0,0-.007,0-.009V12.9a.024.024,0,0,0-.006-.019l-.013-.031-.012-.038c-.007-.019-.014-.038-.024-.059s-.027-.071-.041-.1l-.012-.026c-.039-.127-.088-.257-.148-.41-.019-.054-.038-.115-.064-.177l-.038-.1,0,0a.814.814,0,0,0-.042-.111c-.007-.019-.013-.038-.019-.057a.265.265,0,0,0-.009-.028c0-.009-.006-.019-.009-.031l-.033-.087-.082-.219-.127-.342-.1-.269c-.1-.283-.2-.544-.292-.794-.022-.061-.045-.12-.066-.179L12.155,9.7c-.463-1.235-.689-1.817-.779-2.005a.668.668,0,0,0-.4-.311l-.007-.007-.007,0a1.257,1.257,0,0,0-.445-.087h-.13a.035.035,0,0,1-.013.007h-.019l-.051,0a.726.726,0,0,0-.191.047l-.013,0-.019.007-.007,0s-.006,0-.006.009l-.009,0h0l0,0-.012,0a.044.044,0,0,1-.013.009l-.006.007-.007,0-.006.007L10,7.4c-.009,0-.009,0-.014.007a.029.029,0,0,0-.02.012l-.026.012a.047.047,0,0,1-.025.019l-.007.007-.007,0-.019.024-.012.012a.793.793,0,0,0-.16.21c-.055.123-.133.323-.247.622L9.4,8.469c-.046.106-.086.222-.126.332l-.04.108L9.2,8.988l-.016.045c-.034.1-.066.193-.1.285l-.013.028-.006.026-.045.115c-.039.108-.077.21-.115.311l-.114.318-.007.016-.051.146-.013.031-.108.3-.039.1-.028.078c-.054.148-.11.3-.164.438-.237.676-.483,1.322-.626,1.642a.3.3,0,0,0-.019.045.464.464,0,0,0,.032.382l.006.014.007.007v.007l0,0a.076.076,0,0,1,.027.033l.007.012.006.007.006.012.007.012.012.007a.853.853,0,0,0,.538.295.02.02,0,0,0,.019.007h.037a.039.039,0,0,0,.027.007h.107a.026.026,0,0,1,.02-.007h.026l.013,0,.006,0,.013,0h.013l.019-.009h.019a.035.035,0,0,1,.013-.007l.013,0h.013s.006-.007.006-.007l.012-.007a.026.026,0,0,1,.013,0h.007l.007-.007.012-.007c.007,0,.007,0,.013,0l.007-.007a.052.052,0,0,0,.019-.012l.013-.007a.544.544,0,0,0,.159-.205l.275-.95Zm5.231-5.175v0a.668.668,0,0,0-.7.589v.038c0,.608,0,2.036.007,4.228v.8a1.309,1.309,0,0,0,0,.243V13.2l.007.007v.012a.591.591,0,0,0,.134.318.437.437,0,0,0,.236.141.049.049,0,0,1,.019,0s.008,0,.011,0a.086.086,0,0,0,.021,0h.013a.019.019,0,0,1,.019.009h.78c.7-.009,1.579-.009,2.05-.009h.031a.46.46,0,0,0,.4-.344.932.932,0,0,0-.153-.907l-.007-.012h0l-.007,0-.012-.009-.006-.007h0l-.007,0-.006-.009a.285.285,0,0,0-.147-.059c-.006-.007-.007-.007-.013-.007h-.031l-.014-.007h-.031c-.421,0-1.058,0-1.456,0-.123,0-.222,0-.284,0h-.074V10.239c.007-.933.007-1.906.007-2.324a.679.679,0,0,0-.741-.627h-.033ZM4.012,7.263a.6.6,0,0,0-.6.653.741.741,0,0,0,.153.452.559.559,0,0,0,.454.205H5.385v3.268c0,.113,0,.222,0,.328V12.5c0,.309,0,.554,0,.707,0,.318.364.483.722.483a.8.8,0,0,0,.581-.2.384.384,0,0,0,.115-.283l.006-4.593h.019c.365.007.839.007,1.341.007a.589.589,0,0,0,.48-.21.677.677,0,0,0,.166-.462.628.628,0,0,0-.639-.669c-.908,0-2.494-.009-3.986-.026H4.012ZM11.325,11.2H9.741l.824-2.382.761,2.38Z" transform="translate(0 0)" fill="#fff" stroke="rgba(0,0,0,0)" stroke-miterlimit="10" stroke-width="1"/>
    </g>
  </g>
</svg>
