<svg xmlns="http://www.w3.org/2000/svg" xmlns:xlink="http://www.w3.org/1999/xlink" width="24" height="24" viewBox="0 0 24 24">
  <defs>
    <clipPath id="clip-path">
      <rect id="사각형_33" data-name="사각형 33" width="24" height="24" transform="translate(-10249 -8499)" fill="#bfbfbf" stroke="#707070" stroke-width="1"/>
    </clipPath>
  </defs>
  <g id="마스크_그룹_10" data-name="마스크 그룹 10" transform="translate(10249 8499)" clip-path="url(#clip-path)">
    <g id="그룹_9" data-name="그룹 9" transform="translate(-10248.015 -8497.119)">
      <path id="빼기_4" data-name="빼기 4" d="M4.458,20.238a.21.21,0,0,1-.17-.072.563.563,0,0,1-.021-.449c.112-.445.675-2.559.958-3.6a10.176,10.176,0,0,1-3.791-3.107A7.4,7.4,0,0,1,0,8.709,7.852,7.852,0,0,1,3.225,2.551,12.564,12.564,0,0,1,11.011,0,12.569,12.569,0,0,1,18.8,2.551a7.852,7.852,0,0,1,3.225,6.158c0,4.8-4.942,8.709-11.018,8.709a13.775,13.775,0,0,1-2.043-.154c-1.148.789-4.033,2.748-4.24,2.885A.439.439,0,0,1,4.458,20.238ZM16.348,9.223v0l1.5,2.043a.3.3,0,0,0,.249.115.338.338,0,0,0,.044,0,.018.018,0,0,0,.01,0l.04-.006a.925.925,0,0,0,.646-.543.316.316,0,0,0-.026-.268l0-.006,0-.006,0,0,0-.006L17.205,8.455l0-.006c.008-.008.018-.018.031-.033s.031-.035.054-.057l.146-.158.06-.064.07-.072a.4.4,0,0,1,.038-.043L17.7,7.93c.242-.258.746-.8,1.013-1.062a.085.085,0,0,0,.019-.02c.066-.1.019-.271-.128-.455l0-.006,0-.006h0l0,0-.007-.008a.913.913,0,0,0-.452-.316.015.015,0,0,0-.009,0l-.007,0a.4.4,0,0,0-.046,0,.167.167,0,0,0-.126.047c-.054.053-.179.18-.343.344L17.031,7c-.385.383-.777.777-.939.939l-.01.012c-.02.018-.035.033-.046.045l-.007.006-.007,0h0l0,.006-.006.006c0-.014.016-1.086,0-1.646V6.363a.027.027,0,0,1,0-.01V6.348a.027.027,0,0,1,0-.008V6.334h0l0-.008,0-.012c-.052-.189-.314-.273-.552-.273H15.4a.04.04,0,0,1-.016,0,.712.712,0,0,0-.453.168.264.264,0,0,0-.075.2c.006.268,0,2.008-.01,3.207v.395q0,.234,0,.428l0,.289v.324a.027.027,0,0,1,0,.01.027.027,0,0,1,0,.01v.006a.184.184,0,0,0,0,.021.1.1,0,0,0,0,.02.055.055,0,0,1,0,.012l.011.021,0,.006a.034.034,0,0,0,0,.008.027.027,0,0,0,0,.008l0,.006a.818.818,0,0,0,1.079,0l.009-.014a.034.034,0,0,0,0-.008l0-.006a.06.06,0,0,0,0-.012l0-.014,0-.008a.118.118,0,0,0,0-.018c0-.008,0-.014,0-.02a.012.012,0,0,0,0-.006v-.008a.012.012,0,0,0,0-.006.027.027,0,0,1,0-.01V9.5l.338-.273ZM7.7,10.328H9.774v.006c-.006.006-.054.08.2.752v.006l.006,0,0,.008a.073.073,0,0,0,.008.014c0,.006,0,.01,0,.01l0,.014c0,.01,0,.01.006.016s0,0,0,0a.182.182,0,0,0,.016.027.43.43,0,0,0,.355.186h.09a.037.037,0,0,1,.021-.006h.016l0-.006h.032l.011,0a.53.53,0,0,0,.1-.029l.032-.01H10.7a.031.031,0,0,1,.016-.01l.011-.006a.261.261,0,0,0,.068-.033l.012-.008v0h0a.013.013,0,0,1,.01,0l0-.012h.011l.016-.016.011-.006.011-.01c.006-.006.008-.006.011-.006l.01-.01.006,0a.008.008,0,0,1,0-.008l.012-.01,0-.006v0l0,0,.01-.006.006-.006.006-.01h0l.006,0a.035.035,0,0,0,.01-.014h0l.006,0,.006-.006h0l0-.012.015-.016c0-.006.006-.008.009-.014a.429.429,0,0,0,.083-.229V10.8c0-.006,0-.006,0-.01v-.012a.036.036,0,0,0-.007-.025v-.016l0-.01v-.012l0,0s0,0,0,0,0-.006,0-.008v-.012a.02.02,0,0,0,0-.016l-.011-.025-.01-.031c-.006-.016-.012-.031-.02-.049s-.022-.059-.034-.084l-.01-.021c-.032-.105-.073-.213-.123-.34-.016-.045-.031-.1-.053-.146l-.031-.086,0,0a.675.675,0,0,0-.035-.092c-.006-.016-.011-.031-.016-.047a.22.22,0,0,0-.008-.023c0-.008,0-.016-.008-.025l-.027-.072L10.6,9.449l-.105-.283-.086-.223c-.082-.234-.164-.451-.242-.658-.019-.051-.037-.1-.055-.148l-.036-.1C9.69,7.018,9.5,6.535,9.429,6.379A.554.554,0,0,0,9.1,6.121L9.09,6.115l-.006,0a1.042,1.042,0,0,0-.369-.072H8.607a.029.029,0,0,1-.011.006H8.581l-.042,0a.6.6,0,0,0-.158.039l-.011,0L8.354,6.1l-.006,0s0,0,0,.008l-.008,0h0l0,0-.01,0a.036.036,0,0,1-.011.008l0,.006-.006,0,0,.006-.009.006c-.008,0-.008,0-.012.006a.024.024,0,0,0-.017.01l-.021.01a.039.039,0,0,1-.021.016l-.006.006-.006,0-.016.02-.01.01a.657.657,0,0,0-.133.174c-.046.1-.11.268-.205.516l-.049.125c-.038.088-.071.184-.1.275l-.033.09-.026.064-.014.037c-.028.08-.055.16-.087.236l-.011.023,0,.021-.037.1c-.032.09-.063.174-.1.258l-.095.264L7.279,8.4l-.042.121-.011.025-.09.248L7.1,8.879l-.023.064c-.045.123-.091.246-.136.363-.2.561-.4,1.1-.519,1.361a.249.249,0,0,0-.016.037.384.384,0,0,0,.026.316l0,.012.006.006v.006l0,0a.063.063,0,0,1,.022.027l.006.01,0,.006,0,.01.006.01.01.006a.707.707,0,0,0,.446.244.017.017,0,0,0,.016.006H7a.033.033,0,0,0,.022.006h.089a.022.022,0,0,1,.017-.006h.021l.011,0,0,0,.011,0h.011L7.2,11.35h.016a.029.029,0,0,1,.011-.006l.011,0h.011s0-.006,0-.006l.01-.006a.021.021,0,0,1,.011,0h.006l.006-.006.01-.006c.006,0,.006,0,.011,0l.006-.006a.043.043,0,0,0,.016-.01l.011-.006a.451.451,0,0,0,.132-.17L7.7,10.33Zm4.336-4.289v0a.554.554,0,0,0-.583.488v.031c0,.5,0,1.688.006,3.5v.662a1.085,1.085,0,0,0,0,.2v.016l.006.006v.01a.49.49,0,0,0,.111.264.362.362,0,0,0,.2.117.041.041,0,0,1,.016,0s.007,0,.009,0l.018,0h.011a.016.016,0,0,1,.016.008h.646c.582-.008,1.309-.008,1.7-.008h.025a.381.381,0,0,0,.329-.285.772.772,0,0,0-.127-.752L14.4,10.3h0l-.006,0-.01-.008,0-.006h0l-.006,0,0-.008a.236.236,0,0,0-.122-.049c0-.006-.006-.006-.011-.006h-.025l-.012-.006h-.025c-.349,0-.877,0-1.207,0l-.235,0h-.062V8.486c.006-.773.006-1.58.006-1.926a.563.563,0,0,0-.614-.52h-.027ZM3.325,6.02a.5.5,0,0,0-.5.541.614.614,0,0,0,.127.375.463.463,0,0,0,.376.17H4.463V9.814c0,.094,0,.184,0,.271v.277c0,.256,0,.459,0,.586,0,.264.3.4.6.4a.667.667,0,0,0,.481-.162.318.318,0,0,0,.1-.234l0-3.807h.016c.3.006.7.006,1.111.006a.488.488,0,0,0,.4-.174A.561.561,0,0,0,7.306,6.6a.52.52,0,0,0-.529-.555c-.753,0-2.067-.008-3.3-.021H3.325ZM9.387,9.281H8.073l.683-1.975.631,1.973Z" transform="translate(0.002)" fill="#bfbfbf" stroke="rgba(0,0,0,0)" stroke-miterlimit="10" stroke-width="1"/>
    </g>
  </g>
</svg>
