<svg xmlns="http://www.w3.org/2000/svg" xmlns:xlink="http://www.w3.org/1999/xlink" width="44" height="44" viewBox="0 0 44 44">
  <defs>
    <clipPath id="clip-path">
      <rect id="사각형_2839" data-name="사각형 2839" width="44" height="44" fill="#3d894e" stroke="#707070" stroke-width="1"/>
    </clipPath>
  </defs>
  <g id="마스크_그룹_55" data-name="마스크 그룹 55" clip-path="url(#clip-path)">
    <path id="medal-line" d="M24.38,14.285A16.761,16.761,0,1,1,7.619,31.046,16.761,16.761,0,0,1,24.38,14.285Zm0,4.19A12.571,12.571,0,1,0,36.951,31.046,12.571,12.571,0,0,0,24.38,18.476Zm0,3.143,2.771,5.614,6.2.9L28.863,32.5l1.058,6.171L24.38,35.76l-5.542,2.913L19.9,32.5l-4.483-4.37,6.2-.9ZM36.951,3.81v6.285l-2.857,2.383a20.816,20.816,0,0,0-7.617-2.28l0-6.391Zm-14.666,0V10.2a20.815,20.815,0,0,0-7.616,2.279l-2.859-2.382V3.81Z" transform="translate(-2.38 -3.808)" fill="#3d894e"/>
  </g>
</svg>
